<svg width="41" height="40" viewBox="0 0 41 40" fill="none" xmlns="http://www.w3.org/2000/svg">
<rect x="0.200012" width="40" height="40" rx="20" fill="url(#paint0_linear_1_1023)"/>
<path d="M30.98 29.81V15.8L23.5 13.3V14.88L29.48 16.88V29.8H22V8.70001H9.42001V29.8H8.82001V31.3H31.58V29.8H30.98V29.81ZM20.5 12.3V29.8H10.92V10.2H20.5V12.3Z" fill="#020309"/>
<path d="M16.18 12.37H18.6V13.58H16.18V12.38V12.37ZM12.55 12.37H14.97V13.58H12.55V12.38V12.37ZM16.18 14.8H18.6V16H16.18V14.8ZM12.55 14.8H14.97V16H12.55V14.8ZM16.18 18.42H18.6V19.63H16.18V18.43V18.42ZM12.55 18.42H14.97V19.63H12.55V18.43V18.42ZM16.18 20.84H18.6V22.05H16.18V20.85V20.84ZM12.55 20.84H14.97V22.05H12.55V20.85V20.84ZM16.18 24.47H18.6V25.68H16.18V24.48V24.47ZM12.55 24.47H14.97V25.68H12.55V24.48V24.47ZM25.86 18.42H27.07V19.63H25.87V18.43L25.86 18.42ZM23.44 18.42H24.65V19.63H23.45V18.43L23.44 18.42ZM25.86 20.84H27.07V22.05H25.87V20.85L25.86 20.84ZM23.44 20.84H24.65V22.05H23.45V20.85L23.44 20.84ZM25.86 24.47H27.07V25.68H25.87V24.48L25.86 24.47ZM23.44 24.47H24.65V25.68H23.45V24.48L23.44 24.47Z" fill="#020309"/>
<defs>
<linearGradient id="paint0_linear_1_1023" x1="20.2" y1="0" x2="20.2" y2="40" gradientUnits="userSpaceOnUse">
<stop stop-color="#002F34" stop-opacity="0.16"/>
<stop offset="0.8177" stop-color="#002F34" stop-opacity="0.01"/>
<stop offset="1" stop-color="#002F34" stop-opacity="0.01"/>
</linearGradient>
</defs>
</svg>
