<svg width="104" height="48" viewBox="0 0 104 48" fill="none" xmlns="http://www.w3.org/2000/svg">
<path d="M29.0589 1.05901H73.9851C86.6551 1.05901 96.9262 11.3301 96.9262 24.0001C96.9262 36.6702 86.6551 46.9412 73.9851 46.9412H29.0589C16.3888 46.9412 6.11774 36.6701 6.11774 24.0001C6.11774 11.33 16.3888 1.05901 29.0589 1.05901Z" fill="white"/>
<path d="M28.6088 41.8431C23.5515 41.8431 18.6969 40.2227 14.9398 37.2803L14.9388 37.2794C10.6192 33.897 8.14164 29.0571 8.14164 23.9998C8.14164 21.4329 8.75264 18.9553 9.9592 16.6375C11.5253 13.6288 14.0175 11.0576 17.1675 9.20213L13.8938 4.97832C9.8482 7.36094 6.64664 10.6646 4.63389 14.5311C3.08126 17.5152 2.29382 20.7015 2.29382 23.9998C2.29382 30.5015 5.47895 36.7254 11.0313 41.0733H11.0323C15.8643 44.8567 22.1068 46.9412 28.6085 46.9412H47.3397L48.9108 44.3923L47.3397 41.8433H28.6086L28.6088 41.8431Z" fill="#FFCE32"/>
<path d="M84.3139 2.41225C81.4564 1.51419 78.4544 1.05862 75.3912 1.05862H28.6093C23.3377 1.05862 18.249 2.41381 13.8942 4.97819L14.0891 8.21106L17.1669 9.20262C20.5519 7.20919 24.5077 6.15644 28.609 6.15644H75.3909C77.7759 6.15644 80.1109 6.51 82.3302 7.20825C85.1371 8.09019 87.7424 9.53356 89.8631 11.3827L93.9983 7.77775C91.2723 5.40212 87.9235 3.54631 84.3135 2.412L84.3139 2.41225Z" fill="#23E5DB"/>
<path d="M93.9987 7.77832L90.5078 8.3977L89.8636 11.3827C93.7288 14.7533 95.8586 19.2338 95.8586 24.0002C95.8589 25.5758 95.6226 27.1425 95.1577 28.6479C92.7609 36.4173 84.6328 41.8434 75.3913 41.8434H47.3406L48.9106 44.3924L47.3406 46.9413H75.3913C87.273 46.9413 97.7228 39.9639 100.805 29.9727C101.402 28.0382 101.706 26.025 101.706 24.0003C101.706 17.8725 98.9682 12.1118 93.9987 7.77832Z" fill="#3A77FF"/>
</svg>
