<svg width="24" height="24" viewBox="0 0 24 24" fill="none" xmlns="http://www.w3.org/2000/svg">
<path d="M12 1.99992C16.9629 1.99992 21 6.0375 21 10.9999C21 15.701 15.9656 20.1954 13.672 22.0001H10.3284C8.03508 20.1954 3 15.7008 3 10.9999C3 6.0375 7.03758 1.99992 12 1.99992ZM12 4.00008C8.14055 4.00008 4.99992 7.14 4.99992 10.9999C4.99992 14.7504 9.61453 18.9811 11.9951 20.764C13.7484 19.4346 19.0001 15.108 19.0001 10.9999C19.0001 7.14 15.8599 4.00008 12 4.00008ZM12 6.99985C14.2055 6.99985 16.0001 8.79422 16.0001 10.9999C16.0001 13.2056 14.2057 14.9998 12.0002 14.9998C9.79477 14.9998 8.00016 13.2054 8.00016 10.9999C8.00016 8.79446 9.79453 6.99985 12 6.99985ZM12 8.99977C10.897 8.99977 10.0001 9.89696 10.0001 10.9999C10.0001 12.1029 10.897 12.9998 12.0002 12.9998C13.1034 12.9998 14.0002 12.1029 14.0002 10.9999C14.0002 9.89696 13.1032 8.99977 12.0002 8.99977H12Z" fill="#002F34"/>
</svg>
